PathFileType	4	(X/Y/Z)	C:/Users/beibeiliu/ov580/test_trc/User3\sequence.42_training_dense_left.trc
DataRate	CameraRate	NumFrames	NumMarkers	Units	OrigDataRate	OrigDataStartFrame	OrigNumFrames
120	120	21	19	mm	120	51	101
Frame#	Time	ThumbCMC			ThumbMCP			ThumbIP			ThumbTip			IndexMCP			IndexPIP			IndexTip			MiddleMCP			MiddlePIP			MiddleTip			RingMCP			RingPIP			RingTip			PinkyMCP			PinkyPIP			PinkyTip			BackHand1			BackHand2			BackHand3	
		X0	Y0	Z0	X1	Y1	Z1	X2	Y2	Z2	X3	Y3	Z3	X4	Y4	Z4	X5	Y5	Z5	X6	Y6	Z6	X7	Y7	Z7	X8	Y8	Z8	X9	Y9	Z9	X10	Y10	Z10	X11	Y11	Z11	X12	Y12	Z12	X13	Y13	Z13	X14	Y14	Z14	X15	Y15	Z15	X16	Y16	Z16	X17	Y17	Z17	X18	Y18	Z18	
50	0.416667	-88.4345	34.9985	60.6222	-57.7009	24.7013	47.1445	-36.3646	10.1233	33.6786	-28.2421	-13.4792	19.5523	-75.8297	26.2992	-14.9205	-51.7135	12.9043	-37.5343	-30.7657	-3.38397	-22.7434	-90.4516	4.69845	-27.1704	-65.3085	-12.9711	-41.5115	-51.0345	-31.8355	-12.3499	-92.0228	-21.8066	-12.1483	-69.7596	-43.5567	0.953256	-73.95	-32.7239	33.5892	-97.9513	-39.1276	7.94702	-83.2309	-46.3453	28.8688	-90.5253	-28.3001	51.337	-134.155	5.10163	17.8131	-148.449	11.0804	41.5509	-120.586	32.9591	32.9306	
51	0.425	-85.2042	39.5822	33.8086	-62.8744	30.1712	10.2611	-49.5322	21.8456	-13.9883	-45.0173	6.5568	-39.4394	-107.951	58.3025	-38.8833	-95.9476	60.152	-69.2856	-75.2697	37.5511	-81.123	-129.588	43.9821	-45.5749	-120.385	40.7765	-76.6944	-95.19	4.21975	-76.2931	-125.202	11.147	-43.2681	-103.875	-12.4524	-51.0914	-92.2783	-23.1707	-23.2912	-130.271	-13.4904	-25.5379	-104.139	-25.8776	-15.3295	-99.305	-17.4023	10.3497	-147.038	28.5402	6.79706	-151.869	25.2489	37.6225	-124.668	51.5651	22.3683	
52	0.433333	-85.4984	40.3463	13.6836	-68.8235	30.1738	-9.72743	-53.9547	24.5712	-42.8787	-52.6717	12.8942	-62.7786	-118.603	69.9722	-45.8231	-116.003	79.8135	-75.2806	-108.096	70.3761	-103.956	-146.849	63.4215	-50.2054	-147.382	66.6087	-79.6328	-134.75	41.5075	-108.049	-149.288	27.6712	-48.2334	-135.803	7.91851	-70.4462	-115.664	-15.1433	-55.8573	-149.282	4.01445	-35.9724	-126.556	-14.4915	-36.4772	-111.351	-18.5022	-9.66818	-149.019	41.9269	3.24608	-148.524	36.9803	37.6551	-120.308	59.3219	13.8561	
53	0.441667	-82.3714	33.8451	15.2834	-68.4928	24.7795	-15.5096	-55.5926	17.6547	-42.4211	-53.7095	8.24256	-60.8155	-117.23	65.1952	-46.2572	-115.341	74.4253	-75.2597	-113.168	75.7715	-99.1675	-143.459	62.1644	-50.7621	-151.617	63.803	-80.5626	-153.432	50.6944	-111.384	-151.693	34.8131	-47.9692	-151.614	14.5088	-69.9487	-134.436	-11.6042	-70.2556	-159.024	11.8154	-33.9405	-142.771	-10.4776	-43.5691	-123.649	-21.3708	-24.5989	-151.774	43.7155	11.2713	-145.621	39.7259	38.0737	-116.365	56.9662	14.3764	
54	0.45	-87.115	30.7018	13.9976	-74.5643	21.1676	-9.28726	-61.555	14.8622	-37.7295	-59.0265	6.10058	-57.1275	-121.103	59.577	-46.2361	-120.213	67.9209	-76.3393	-120.181	69.8039	-97.0373	-151.012	55.8603	-46.6067	-155.351	58.202	-78.2752	-160.921	52.0547	-109.314	-163.568	34.7427	-40.0774	-167.09	16.2166	-66.8494	-153.494	-9.35851	-72.2348	-172.514	15.3549	-29.835	-165.004	-6.18689	-44.1737	-143.382	-21.378	-32.4421	-154.737	45.2073	12.885	-149.033	38.3852	42.7098	-117.966	51.7581	17.5903	
55	0.458333	-110.646	28.0437	14.665	-95.3294	21.6163	-13.0442	-87.7349	15.7867	-38.6203	-78.4514	9.03298	-61.2051	-146.218	57.4483	-44.1308	-147.363	63.8991	-74.5393	-149.204	64.1321	-100.258	-171.894	58.3893	-44.4128	-179.687	62.6433	-74.8195	-190.088	55.2218	-101.867	-186.077	40.0626	-34.9472	-198.197	23.48	-64.9874	-191.765	-2.04623	-75.3587	-202.555	21.309	-21.1199	-203.366	4.55303	-41.3612	-183.954	-23.1932	-41.097	-171.704	45.9801	14.938	-165.14	42.5858	41.6624	-138.705	52.4608	20.7743	
56	0.466667	-144.729	16.8693	8.65267	-131.22	8.67119	-16.729	-122.257	2.13894	-43.8749	-118.406	-6.75066	-63.3553	-183.982	43.5384	-50.2961	-186.344	45.2188	-78.9049	-190.043	39.9311	-103.478	-212.147	47.8186	-45.2145	-224.833	48.5349	-74.2129	-237.444	34.7887	-102.593	-226.338	30.6647	-31.5596	-242.561	17.3142	-59.8521	-237.957	-10.4091	-73.0962	-238.008	15.3066	-13.9103	-249.075	0.690765	-34.8982	-237.936	-29.2853	-41.1099	-211.495	37.5468	12.9869	-199.654	34.9568	44.9694	-172.434	39.8083	12.5683	
57	0.475	-167.312	-7.4779	13.067	-157.267	-19.784	-12.762	-154.464	-33.0333	-41.9295	-155.472	-45.4736	-59.8846	-207.079	11.2493	-54.9756	-213.272	7.95018	-82.0107	-216.528	-5.73186	-105.827	-235.515	19.7454	-45.0725	-247.395	16.3178	-71.9585	-258.61	-15.2663	-95.9482	-250.595	7.10457	-34.3676	-264.349	-8.56189	-57.083	-260.392	-38.3078	-59.3627	-262.539	-7.0763	-10.5513	-274.359	-28.2163	-29.1285	-261.142	-54.0476	-28.3569	-230.723	14.413	14.7568	-216.298	18.4406	40.0266	-194.294	18.6119	13.1923	
58	0.483333	-165.023	-22.7104	18.9233	-159.809	-40.2739	-6.16057	-158.3	-56.3461	-30.1083	-169.8	-72.9793	-48.9893	-204.912	-11.1388	-48.3059	-208.515	-17.8433	-77.1181	-211.823	-38.6728	-101.552	-232.867	-6.95917	-42.9835	-242.263	-24.3728	-74.0618	-238.934	-62.3699	-73.302	-247.259	-19.5312	-30.7913	-255.133	-45.5188	-49.9914	-240.966	-68.8882	-37.1075	-260.004	-32.3077	-11.7526	-259.68	-56.8054	-25.1186	-238.459	-72.7584	-5.72369	-229.517	-2.26585	11.893	-221.656	2.49378	43.8647	-197.606	3.13879	15.0126	
59	0.491667	-151.856	-17.4579	27.6711	-145.721	-37.0314	1.01725	-147.226	-54.2807	-23.1082	-164.511	-69.8514	-37.4713	-182.422	-4.8773	-48.18	-179.618	-12.4543	-76.6034	-182.281	-26.5719	-94.7707	-210.715	-14.2854	-48.5028	-206.516	-38.575	-68.5802	-198.016	-68.2161	-43.4955	-223.036	-31.818	-35.2106	-214.637	-61.5456	-39.5304	-200.512	-66.4725	-8.70372	-234.12	-41.6715	-12.9416	-220.735	-68.9981	-13.3363	-208.142	-63.0451	9.21151	-220.852	-2.17611	18.1458	-215.29	2.92803	45.6438	-182.51	8.34391	19.9516	
60	0.5	-133.225	-0.11737	35.4476	-126.331	-17.228	6.67078	-128.848	-33.6082	-24.1671	-147.256	-44.3666	-34.9213	-159.021	22.6523	-33.3736	-157.015	24.38	-62.9821	-155.668	17.9115	-92.4158	-175.839	2.3469	-43.6772	-169.086	-26.1987	-55.5539	-156.31	-44.9124	-18.5448	-191.247	-16.6583	-30.6369	-179.979	-45.8026	-26.7139	-168.224	-42.5779	2.45025	-201.796	-26.2192	-14.6756	-187.85	-49.92	-7.92263	-179.865	-42.6381	20.2178	-198.362	14.4883	16.6342	-195.453	14.1279	51.9963	-168.606	22.7944	30.475	
61	0.508333	-111.622	17.1308	42.274	-103.372	5.2274	10.299	-108.047	-4.43583	-19.3342	-129.587	-13.2521	-37.4578	-142.327	56.0973	-16.3491	-142.087	67.1577	-43.8241	-139.422	73.9243	-69.3204	-152.745	29.2576	-32.4548	-142.766	-0.583618	-40.1226	-134.518	-13.4309	-3.91054	-169.388	10.4541	-19.6562	-152.843	-16.5116	-18.3636	-147.96	-15.0679	15.7231	-179.938	-2.20898	-10.9787	-161.994	-22.8274	-2.51422	-157.457	-15.9002	25.0525	-178.736	34.2965	28.8029	-174.853	26.61	60.3267	-142.752	43.9687	47.3429	
62	0.516667	-99.6829	33.5197	47.7826	-94.9698	28.2746	10.6314	-100.984	21.3398	-14.9001	-124.044	13.1461	-32.3294	-141.909	79.2244	-3.75867	-147.362	91.6174	-24.7689	-156.217	100.095	-51.364	-148.257	50.0407	-19.1587	-131.678	22.0061	-31.4686	-124.992	6.31945	2.65061	-159.467	28.1053	-10.9961	-141.031	4.66771	-13.0037	-133.554	3.99143	22.5342	-169.51	16.4419	-0.938492	-150.288	-5.03249	2.14078	-143.753	-2.90267	33.2065	-166.212	46.5204	47.1436	-158.544	34.661	72.6588	-133.786	55.0636	57.1024	
63	0.525	-108.213	41.9101	41.8245	-102.871	35.0627	7.36179	-109.593	25.4358	-19.7436	-129.452	9.22603	-32.3054	-163.215	68.3553	-7.49434	-177.022	75.3828	-30.3723	-190.324	81.2819	-50.9489	-164.514	36.379	-20.7415	-143.417	16.2596	-32.6983	-122.818	10.7101	1.94358	-168.085	18.5571	-6.51896	-141.902	-1.03919	-9.46248	-131.901	3.67524	21.6159	-173.814	6.09815	4.39793	-148.573	-10.7461	4.76598	-136.817	1.75643	31.3953	-173.237	38.4401	46.0486	-165.516	28.8271	76.7982	-145.305	57.8293	52.432	
64	0.533333	-128.904	44.5122	30.5553	-116.428	35.6553	-0.456659	-120.603	18.6945	-31.9667	-131.56	-4.66708	-34.803	-189.352	38.3501	-18.8591	-203.98	35.9266	-40.7242	-215.767	34.7779	-57.3164	-177.072	10.5799	-26.4012	-147.596	-5.74325	-34.495	-127.525	2.77347	-1.89056	-172.237	-10.2678	-10.4382	-142.082	-17.1352	-11.0509	-131.558	0.539804	16.7268	-171.244	-18.1067	3.49198	-142.457	-21.9457	4.20401	-135.043	-7.66217	29.936	-186.354	16.7679	40.797	-172.18	19.0199	69.0189	-164.265	46.4404	41.577	
65	0.541667	-139.204	40.1729	22.5938	-125.776	27.6781	-9.94556	-118.194	10.6341	-29.1352	-123.016	-17.1614	-35.2717	-190.977	13.4419	-23.5558	-203.948	0.00121291	-47.0067	-217.043	-9.74847	-66.5651	-172.596	-14.1328	-29.5371	-140.617	-24.4336	-33.4831	-124.178	-9.43422	-4.56894	-162.577	-26.1652	-12.6057	-131.696	-26.8352	-8.82056	-127.837	-7.7912	17.3074	-158.73	-36.4948	2.9425	-132.362	-33.4881	8.62711	-130.903	-8.64731	26.3861	-186.347	-1.61308	37.3207	-180.392	5.68122	63.2722	-177.359	30.9089	35.4242	
66	0.55	-135.568	34.9909	21.2198	-114.794	24.1562	-5.33062	-103.774	1.30645	-24.7083	-101.511	-27.3574	-27.8346	-174.553	-4.08382	-29.2484	-180.147	-19.047	-52.607	-185.96	-32.8087	-73.596	-152.922	-31.9473	-26.8327	-121.573	-33.5254	-31.7395	-111.58	-12.3445	4.09261	-144.402	-40.3693	-7.46469	-114.449	-38.1439	0.0480315	-114.674	-13.9321	20.8107	-145.04	-49.1248	11.4813	-118.267	-38.5924	14.035	-121.418	-17.7112	36.0816	-179.988	-12.8285	34.2531	-175.686	-2.6407	59.9457	-174.639	20.9737	30.1627	
67	0.558333	-118.311	35.0634	26.2386	-93.8036	20.7502	6.12854	-79.2051	-1.51082	-14.0252	-83.0762	-31.1589	-13.3955	-147.435	-4.40534	-31.1533	-146.086	-14.6113	-56.1158	-146.339	-26.2487	-78.6767	-130.417	-30.3357	-22.9771	-97.6721	-35.8873	-19.4833	-94.4736	-17.2131	13.3196	-126.869	-40.4513	-4.35919	-97.5725	-37.4903	8.93851	-103.057	-14.0953	29.4912	-126.083	-49.9111	13.2957	-102.925	-39.2558	24.4756	-114.126	-15.49	40.3321	-168.128	-12.0029	29.7303	-166.504	0.0724954	54.7985	-157.991	22.1446	26.9701	
68	0.566667	-92.1578	37.4915	39.668	-68.1187	19.4282	19.7948	-59.7873	-1.12332	1.49764	-64.6328	-29.0595	-9.03175	-113.065	18.6285	-34.3738	-107.957	10.6202	-61.5822	-104.247	0.839179	-80.888	-109.356	-13.4348	-26.2979	-82.8143	-29.5022	-18.4048	-79.9384	-14.3751	17.7827	-113.301	-24.4629	-8.7039	-87.8788	-34.8077	8.57703	-92.3536	-17.0296	35.0784	-120.345	-39.544	8.15297	-95.6972	-35.2188	22.8315	-102.186	-12.4323	39.8283	-149.926	6.62745	19.7858	-156.516	14.6136	50.5783	-132.751	35.1429	28.2833	
69	0.575	-74.066	33.7717	54.2413	-51.0814	17.3605	29.3394	-41.6672	1.6729	5.40811	-52.1811	-17.347	-12.0891	-72.3994	51.0732	-22.6061	-63.3404	49.1317	-49.1919	-56.0806	46.9708	-70.6618	-83.4385	14.2139	-28.9421	-67.6402	-10.6657	-23.2304	-73.659	-7.27994	17.7926	-98.1155	-1.45346	-15.3621	-82.9045	-23.0498	-1.25591	-84.8828	-9.47231	29.9911	-109.939	-13.5428	-6.75905	-91.4918	-22.5124	12.728	-97.8761	-8.64287	37.1828	-131.066	34.4591	20.1833	-139.614	33.3717	51.5758	-105.88	51.0758	38.8337	
70	0.583333	-60.873	29.0366	60.5258	-44.2996	20.0057	33.1593	-33.303	12.8896	3.35243	-46.9535	6.46956	-20.8811	-52.8578	74.5661	-2.28622	-40.2268	82.6451	-20.1768	-30.1635	89.785	-48.4288	-66.5848	46.737	-20.7437	-57.9352	16.7989	-28.0735	-65.877	5.83547	9.26177	-87.7038	28.4819	-18.5977	-75.7247	-1.18359	-8.49299	-84.5864	3.52622	24.5196	-101.369	14.8543	-15.5734	-92.9124	-6.40841	-1.55388	-96.0018	4.74306	29.2585	-116.412	53.1529	24.6536	-123.055	42.9182	56.3014	-90.4334	55.6719	52.4819	
